<svg width="18" height="17" viewBox="0 0 18 17" fill="none" xmlns="http://www.w3.org/2000/svg">
<path fill-rule="evenodd" clip-rule="evenodd" d="M8.21213 2.39226C8.25929 2.24272 8.35288 2.11211 8.47933 2.0194C8.60578 1.92669 8.75849 1.87671 8.91528 1.87671C9.07207 1.87671 9.22478 1.92669 9.35123 2.0194C9.47768 2.11211 9.57128 2.24272 9.61843 2.39226L10.8882 6.29712H14.9842C15.1466 6.29098 15.3066 6.33818 15.4396 6.4315C15.5727 6.52482 15.6715 6.65913 15.721 6.81392C15.7706 6.9687 15.7681 7.13544 15.7139 7.28867C15.6597 7.4419 15.5569 7.57318 15.4211 7.66246L12.0965 10.0723L13.3663 13.984C13.4165 14.133 13.4178 14.2941 13.3699 14.4439C13.322 14.5937 13.2275 14.7242 13.1002 14.8165C12.9729 14.9087 12.8194 14.9579 12.6622 14.9567C12.5049 14.9555 12.3522 14.9041 12.2262 14.81L8.8948 12.3729L5.5702 14.7895C5.44425 14.8837 5.29151 14.9351 5.13428 14.9362C4.97704 14.9374 4.82356 14.8883 4.69623 14.796C4.5689 14.7038 4.4744 14.5732 4.42653 14.4234C4.37866 14.2737 4.37993 14.1125 4.43014 13.9635L5.69991 10.0518L2.37531 7.64198C2.23951 7.5527 2.13668 7.42142 2.08253 7.26819C2.02837 7.11496 2.02586 6.94822 2.07539 6.79344C2.12493 6.63865 2.22377 6.50434 2.35682 6.41102C2.48987 6.3177 2.64982 6.2705 2.81222 6.27664H6.90823L8.21213 2.39226Z" stroke="#90A3BF" stroke-width="1.2288" stroke-linecap="round" stroke-linejoin="round"/>
</svg>
