<svg width="17" height="17" viewBox="0 0 17 17" fill="none" xmlns="http://www.w3.org/2000/svg">
<path fill-rule="evenodd" clip-rule="evenodd" d="M8.12224 2.39226C8.1694 2.24272 8.263 2.11211 8.38944 2.0194C8.51589 1.92669 8.6686 1.87671 8.82539 1.87671C8.98218 1.87671 9.13489 1.92669 9.26134 2.0194C9.38779 2.11211 9.48139 2.24272 9.52854 2.39226L10.7983 6.29712H14.8943C15.0567 6.29098 15.2167 6.33818 15.3497 6.4315C15.4828 6.52482 15.5816 6.65913 15.6311 6.81392C15.6807 6.9687 15.6782 7.13544 15.624 7.28867C15.5699 7.4419 15.467 7.57318 15.3312 7.66246L12.0066 10.0723L13.2764 13.984C13.3266 14.133 13.3279 14.2941 13.28 14.4439C13.2321 14.5937 13.1376 14.7242 13.0103 14.8165C12.883 14.9087 12.7295 14.9579 12.5723 14.9567C12.415 14.9555 12.2623 14.9041 12.1363 14.81L8.80491 12.3729L5.48031 14.7895C5.35436 14.8837 5.20162 14.9351 5.04439 14.9362C4.88716 14.9374 4.73367 14.8883 4.60634 14.796C4.47901 14.7038 4.38451 14.5732 4.33664 14.4234C4.28877 14.2737 4.29004 14.1125 4.34025 13.9635L5.61002 10.0518L2.28542 7.64198C2.14962 7.5527 2.04679 7.42142 1.99264 7.26819C1.93848 7.11496 1.93597 6.94822 1.98551 6.79344C2.03504 6.63865 2.13388 6.50434 2.26693 6.41102C2.39998 6.3177 2.55993 6.2705 2.72233 6.27664H6.81834L8.12224 2.39226Z" fill="#FBAD39"/>
</svg>
