<svg width="18" height="17" viewBox="0 0 18 17" fill="none" xmlns="http://www.w3.org/2000/svg">
<path fill-rule="evenodd" clip-rule="evenodd" d="M8.18966 2.39226C8.23681 2.24272 8.33041 2.11211 8.45686 2.0194C8.5833 1.92669 8.73601 1.87671 8.8928 1.87671C9.0496 1.87671 9.20231 1.92669 9.32875 2.0194C9.4552 2.11211 9.5488 2.24272 9.59595 2.39226L10.8657 6.29712H14.9617C15.1241 6.29098 15.2841 6.33818 15.4171 6.4315C15.5502 6.52482 15.649 6.65913 15.6986 6.81392C15.7481 6.9687 15.7456 7.13544 15.6914 7.28867C15.6373 7.4419 15.5344 7.57318 15.3986 7.66246L12.074 10.0723L13.3438 13.984C13.394 14.133 13.3953 14.2941 13.3474 14.4439C13.2996 14.5937 13.2051 14.7242 13.0777 14.8165C12.9504 14.9087 12.7969 14.9579 12.6397 14.9567C12.4824 14.9555 12.3297 14.9041 12.2038 14.81L8.87232 12.3729L5.54772 14.7895C5.42178 14.8837 5.26903 14.9351 5.1118 14.9362C4.95457 14.9374 4.80108 14.8883 4.67375 14.796C4.54642 14.7038 4.45192 14.5732 4.40405 14.4234C4.35618 14.2737 4.35745 14.1125 4.40767 13.9635L5.67743 10.0518L2.35283 7.64198C2.21704 7.5527 2.11421 7.42142 2.06005 7.26819C2.00589 7.11496 2.00339 6.94822 2.05292 6.79344C2.10245 6.63865 2.20129 6.50434 2.33434 6.41102C2.4674 6.3177 2.62734 6.2705 2.78974 6.27664H6.88576L8.18966 2.39226Z" fill="#FBAD39"/>
</svg>
