<svg width="18" height="17" viewBox="0 0 18 17" fill="none" xmlns="http://www.w3.org/2000/svg">
<path fill-rule="evenodd" clip-rule="evenodd" d="M8.16718 2.39226C8.21433 2.24272 8.30793 2.11211 8.43438 2.0194C8.56083 1.92669 8.71354 1.87671 8.87033 1.87671C9.02712 1.87671 9.17983 1.92669 9.30628 2.0194C9.43272 2.11211 9.52632 2.24272 9.57348 2.39226L10.8432 6.29712H14.9393C15.1017 6.29098 15.2616 6.33818 15.3947 6.4315C15.5277 6.52482 15.6265 6.65913 15.6761 6.81392C15.7256 6.9687 15.7231 7.13544 15.669 7.28867C15.6148 7.4419 15.512 7.57318 15.3762 7.66246L12.0516 10.0723L13.3213 13.984C13.3715 14.133 13.3728 14.2941 13.3249 14.4439C13.2771 14.5937 13.1826 14.7242 13.0552 14.8165C12.9279 14.9087 12.7744 14.9579 12.6172 14.9567C12.46 14.9555 12.3072 14.9041 12.1813 14.81L8.84985 12.3729L5.52525 14.7895C5.3993 14.8837 5.24656 14.9351 5.08933 14.9362C4.93209 14.9374 4.7786 14.8883 4.65128 14.796C4.52395 14.7038 4.42945 14.5732 4.38158 14.4234C4.33371 14.2737 4.33497 14.1125 4.38519 13.9635L5.65496 10.0518L2.33036 7.64198C2.19456 7.5527 2.09173 7.42142 2.03757 7.26819C1.98342 7.11496 1.98091 6.94822 2.03044 6.79344C2.07997 6.63865 2.17882 6.50434 2.31187 6.41102C2.44492 6.3177 2.60486 6.2705 2.76726 6.27664H6.86328L8.16718 2.39226Z" fill="#FBAD39"/>
</svg>
