<svg width="18" height="17" viewBox="0 0 18 17" fill="none" xmlns="http://www.w3.org/2000/svg">
<path fill-rule="evenodd" clip-rule="evenodd" d="M8.14472 2.39226C8.19187 2.24272 8.28547 2.11211 8.41192 2.0194C8.53836 1.92669 8.69107 1.87671 8.84787 1.87671C9.00466 1.87671 9.15737 1.92669 9.28382 2.0194C9.41026 2.11211 9.50386 2.24272 9.55102 2.39226L10.8208 6.29712H14.9168C15.0792 6.29098 15.2391 6.33818 15.3722 6.4315C15.5052 6.52482 15.6041 6.65913 15.6536 6.81392C15.7031 6.9687 15.7006 7.13544 15.6465 7.28867C15.5923 7.4419 15.4895 7.57318 15.3537 7.66246L12.0291 10.0723L13.2989 13.984C13.3491 14.133 13.3504 14.2941 13.3025 14.4439C13.2546 14.5937 13.1601 14.7242 13.0328 14.8165C12.9055 14.9087 12.752 14.9579 12.5947 14.9567C12.4375 14.9555 12.2848 14.9041 12.1588 14.81L8.82739 12.3729L5.50279 14.7895C5.37684 14.8837 5.2241 14.9351 5.06686 14.9362C4.90963 14.9374 4.75614 14.8883 4.62881 14.796C4.50149 14.7038 4.40699 14.5732 4.35912 14.4234C4.31125 14.2737 4.31251 14.1125 4.36273 13.9635L5.63249 10.0518L2.30789 7.64198C2.1721 7.5527 2.06927 7.42142 2.01511 7.26819C1.96096 7.11496 1.95845 6.94822 2.00798 6.79344C2.05751 6.63865 2.15635 6.50434 2.28941 6.41102C2.42246 6.3177 2.5824 6.2705 2.7448 6.27664H6.84082L8.14472 2.39226Z" fill="#FBAD39"/>
</svg>
