<svg width="25" height="24" viewBox="0 0 25 24" fill="none" xmlns="http://www.w3.org/2000/svg">
<path d="M9.5 2C6.88 2 4.75 4.13 4.75 6.75C4.75 9.32 6.76 11.4 9.38 11.49C9.46 11.48 9.54 11.48 9.6 11.49C9.62 11.49 9.63 11.49 9.65 11.49C9.66 11.49 9.66 11.49 9.67 11.49C12.23 11.4 14.24 9.32 14.25 6.75C14.25 4.13 12.12 2 9.5 2Z" fill="#90A3BF"/>
<path d="M14.58 14.15C11.79 12.29 7.23996 12.29 4.42996 14.15C3.15996 15 2.45996 16.15 2.45996 17.38C2.45996 18.61 3.15996 19.75 4.41996 20.59C5.81996 21.53 7.65996 22 9.49996 22C11.34 22 13.18 21.53 14.58 20.59C15.84 19.74 16.54 18.6 16.54 17.36C16.53 16.13 15.84 14.99 14.58 14.15Z" fill="#90A3BF"/>
<path d="M20.49 7.33998C20.65 9.27998 19.27 10.98 17.36 11.21C17.35 11.21 17.35 11.21 17.34 11.21H17.31C17.25 11.21 17.19 11.21 17.14 11.23C16.17 11.28 15.28 10.97 14.61 10.4C15.64 9.47998 16.23 8.09998 16.11 6.59998C16.04 5.78998 15.76 5.04998 15.34 4.41998C15.72 4.22998 16.16 4.10998 16.61 4.06998C18.57 3.89998 20.32 5.35998 20.49 7.33998Z" fill="#90A3BF"/>
<path d="M22.49 16.59C22.41 17.56 21.79 18.4 20.75 18.97C19.75 19.52 18.49 19.78 17.24 19.75C17.96 19.1 18.38 18.29 18.46 17.43C18.56 16.19 17.97 15 16.79 14.05C16.12 13.52 15.34 13.1 14.49 12.79C16.7 12.15 19.48 12.58 21.19 13.96C22.11 14.7 22.58 15.63 22.49 16.59Z" fill="#90A3BF"/>
</svg>
